<svg width="24" height="24" viewBox="0 0 24 24" fill="none" xmlns="http://www.w3.org/2000/svg">
<g clip-path="url(#clip0_148_562)">
<path d="M22.0763 1.92373C24.4194 4.26688 24.4194 8.06587 22.0763 10.409L18.4713 14.014C18.4078 14.0775 18.3105 14.0909 18.2348 14.0428C17.9001 13.8307 17.003 13.2042 16.5962 12.3536C15.7537 10.592 19.0711 9.17158 16.9497 7.05026C14.8284 4.92894 13.408 8.24628 11.6464 7.40381C10.7958 6.99697 10.1693 6.09988 9.95718 5.76525C9.90914 5.68946 9.92255 5.59217 9.986 5.52873L13.591 1.92373C15.9341 -0.419414 19.7331 -0.419414 22.0763 1.92373Z" fill="black" fill-opacity="0.85098"/>
<path d="M1.92373 22.0763C-0.419414 19.7331 -0.419414 15.9341 1.92373 13.591L5.52872 9.986C5.59217 9.92256 5.68946 9.90915 5.76524 9.95718C6.09988 10.1693 6.99697 10.7958 7.40381 11.6464C8.24628 13.408 4.92893 14.8284 7.05026 16.9498C9.17158 19.0711 10.592 15.7537 12.3536 16.5962C13.2042 17.003 13.8307 17.9001 14.0428 18.2348C14.0909 18.3105 14.0775 18.4078 14.014 18.4713L10.409 22.0763C8.06587 24.4194 4.26688 24.4194 1.92373 22.0763Z" fill="black" fill-opacity="0.85098"/>
<path d="M14.8284 9.17157L9.17158 14.8284" stroke="black" stroke-opacity="0.85098" stroke-width="1.5" stroke-linecap="round"/>
</g>
<defs>
<clipPath id="clip0_148_562">
<rect width="24" height="24" fill="white"/>
</clipPath>
</defs>
</svg>
