<svg width="24" height="24" viewBox="0 0 24 24" fill="none" xmlns="http://www.w3.org/2000/svg">
<path d="M0 12C0 18.6274 5.37258 24 12 24C14.1746 24 16.2141 23.4216 17.973 22.4102L24 24L22.2639 18.2206C23.3656 16.4066 24 14.2774 24 12C24 5.37258 18.6274 0 12 0C5.37258 0 0 5.37258 0 12Z" fill="black" fill-opacity="0.85098"/>
<path d="M21.6228 17.8312L21.4495 18.1166L21.5456 18.4363L22.8964 22.9333L18.1643 21.685L17.8663 21.6064L17.5991 21.76C15.9509 22.7077 14.0399 23.25 12 23.25C5.7868 23.25 0.75 18.2132 0.75 12C0.75 5.7868 5.7868 0.75 12 0.75C18.2132 0.75 23.25 5.7868 23.25 12C23.25 14.1362 22.6553 16.1313 21.6228 17.8312Z" stroke="black" stroke-opacity="0.85098" stroke-width="1.5"/>
</svg>
