<svg width="24" height="24" viewBox="0 0 24 24" fill="none" xmlns="http://www.w3.org/2000/svg">
<path d="M0.8 1.23591C0.800067 1.33522 0.828028 1.43195 0.879916 1.51482L0.882801 1.51943L0.882785 1.51944C1.16047 1.9697 1.44478 2.4228 1.73113 2.87917C2.52494 4.14427 3.33455 5.43455 4.06288 6.75949L4.06519 6.76369L4.06518 6.76369C4.96714 8.428 5.43124 10.2975 5.41368 12.1936C5.39612 14.0891 4.89782 15.9489 3.96583 17.5954C3.96548 17.5961 3.96514 17.5967 3.9648 17.5973L3.26866 17.2031C2.56596 18.4593 1.79062 19.6767 1.01555 20.8937C0.745851 21.3171 0.476188 21.7406 0.209629 22.1655L0.8 1.23591ZM0.8 1.23591C0.800457 1.16091 0.819613 1.08761 0.855228 1.02285C0.890977 0.957835 0.941927 0.903885 1.00265 0.865364C1.06331 0.826875 1.13203 0.804841 1.20241 0.800712C1.27231 0.796612 1.34238 0.810254 1.40633 0.840775L0.8 1.23591Z" stroke="black" stroke-opacity="0.85098" stroke-width="1.6"/>
</svg>
